/* XPM */
static char *_724c85a519d4063ed430b872d00fbba1Wj7dngODw3Lb81g[] = {
/* columns rows colors chars-per-pixel */
"64 64 199 2 ",
"   c None",
".  c #040805",
"X  c #1E2214",
"o  c #0D311F",
"O  c #3A351E",
"+  c #173727",
"@  c #342C20",
"#  c #473F26",
"$  c #154E31",
"%  c #2D4A32",
"&  c #385B3B",
"*  c #404E2E",
"=  c #554A2C",
"-  c #4C4733",
";  c #514A3B",
":  c #514631",
">  c #505A39",
",  c #695B3F",
"<  c #685A38",
"1  c #6F603C",
"2  c #7E703E",
"3  c #736338",
"4  c #385446",
"5  c #2B5540",
"6  c #1C6641",
"7  c #1D6D44",
"8  c #2B6347",
"9  c #236F49",
"0  c #2C724F",
"q  c #227F50",
"w  c #2E7753",
"e  c #347C58",
"r  c #396F54",
"t  c #5A574C",
"y  c #5C5A56",
"u  c #485148",
"i  c #695E4A",
"p  c #6A5B41",
"a  c #486B5A",
"s  c #437E4C",
"d  c #6A694C",
"f  c #7A6C48",
"g  c #716A59",
"h  c #7E755B",
"j  c #6F7A4B",
"k  c #5A6760",
"l  c #5E6C65",
"z  c #5E796B",
"x  c #666666",
"c  c #696E6B",
"v  c #7B7B7B",
"b  c #72776A",
"n  c #806F42",
"m  c #887642",
"M  c #897847",
"N  c #907D45",
"B  c #877653",
"V  c #917F51",
"C  c #847C69",
"Z  c #258E5A",
"A  c #298858",
"S  c #368150",
"D  c #26945D",
"F  c #2A9B62",
"G  c #3B9969",
"H  c #2BA166",
"J  c #2CA669",
"K  c #2DAB6B",
"L  c #3BA76A",
"P  c #2EB16F",
"I  c #39AC72",
"U  c #2FB371",
"Y  c #31BA75",
"T  c #3ABC79",
"R  c #35B975",
"E  c #578852",
"W  c #59965B",
"Q  c #468F5A",
"!  c #6F9358",
"~  c #5C806E",
"^  c #449568",
"/  c #5C9E61",
"(  c #688777",
")  c #6C8861",
"_  c #4CAA6C",
"`  c #49B27D",
"'  c #4EA87B",
"]  c #78BF7D",
"[  c #6FB06A",
"{  c #34C57C",
"}  c #35C97E",
"|  c #3CC67D",
" . c #4CC67E",
".. c #99854C",
"X. c #978556",
"o. c #85854B",
"O. c #A28D4E",
"+. c #AA945B",
"@. c #A7925A",
"#. c #B29A56",
"$. c #B79E59",
"%. c #A08C58",
"&. c #8FA25D",
"*. c #9FA25E",
"=. c #ADA85F",
"-. c #BDA45B",
";. c #9F977C",
":. c #A18A60",
">. c #A99865",
",. c #B49E67",
"<. c #A79A76",
"1. c #9CB46A",
"2. c #BCA56A",
"3. c #BBAB62",
"4. c #B8BC79",
"5. c #A6AF73",
"6. c #C3A95F",
"7. c #C3AA62",
"8. c #C9AE61",
"9. c #C0AB6E",
"0. c #CBB062",
"q. c #D2B666",
"w. c #D6BB6D",
"e. c #C4AD74",
"r. c #C9B174",
"t. c #D4BB7D",
"y. c #D8BD77",
"u. c #DEC06B",
"i. c #DEC27B",
"p. c #DEC173",
"a. c #E0C26C",
"s. c #E8CB7D",
"d. c #739283",
"f. c #5DB287",
"g. c #5BA781",
"h. c #70B191",
"j. c #36CE82",
"k. c #3ACE83",
"l. c #3BDB8A",
"z. c #38D485",
"x. c #3CE38E",
"c. c #3EEC94",
"v. c #52CF8A",
"b. c #67CA83",
"n. c #42FA9D",
"m. c #41F499",
"M. c #4EE590",
"N. c #878A88",
"B. c #949392",
"V. c #9B9B9A",
"C. c #8D968D",
"Z. c #83BC9F",
"A. c #96A487",
"S. c #B7AB87",
"D. c #B5AE9B",
"F. c #A8A884",
"G. c #B1ADA3",
"H. c #ADB4B0",
"J. c #B4B4B4",
"K. c #B4BAB7",
"L. c #B4B0A3",
"P. c #D9BF82",
"I. c #B1CA85",
"U. c #9FEA99",
"Y. c #8AC5A8",
"T. c #A7C8B8",
"R. c #BCC2BF",
"E. c #D6C887",
"W. c #D9D391",
"Q. c #C9CE85",
"!. c #E1C684",
"~. c #E5CA8B",
"^. c #E4C989",
"/. c #EDD18C",
"(. c #EAD187",
"). c #F4D88E",
"_. c #EFD391",
"`. c #EFDB95",
"'. c #E5D696",
"]. c #F3D693",
"[. c #F5D995",
"{. c #FCDE99",
"}. c #F6DC97",
"|. c #DEE59C",
" X c #FFE19C",
".X c #E8D5A7",
"XX c #FFE3A0",
"oX c #BFDBCD",
"OX c #C3C3C3",
"+X c #C8CCCA",
"@X c #C8DFD3",
"#X c #D6D6D6",
"$X c #C1D5CB",
"%X c #DDE8E2",
"&X c #E4E4E4",
"*X c #E7EBE8",
"=X c #EDF2EF",
"-X c #F7F7F7",
";X c #F8F8F8",
/* pixels */
"                                                                                                                                ",
"                                                                                                                                ",
"                                                                                                                                ",
"                                                                                                                                ",
"                                                                                                                                ",
"                                                                                                                                ",
"                                                                                                                                ",
"                                                                                                                                ",
"                                                                                                                                ",
"                                                                                                                                ",
"                                                                                                                                ",
"                                                                                                                                ",
"                                                                                                                                ",
"                                                                                                                                ",
"                                                                                                                                ",
"                                                                                                                                ",
"                                                                                                                                ",
"                                                                                                                                ",
"                                                                                                                                ",
"                                                                                                                                ",
"                                                                                                                                ",
"                                                                                                                                ",
"                                                                                                                                ",
"                                                                                                                                ",
"                                                                                                                                ",
"                                                                                                                                ",
"                                                                                                                                ",
"                                                                                                                                ",
"                                                                                                                                ",
"                                                                                                                                ",
"                                                                                                                                ",
"                                                                                                                                ",
"                                  -X-X                                                %XZ.G j.                                  ",
"                                                                                    Y.v.c.j.G +X                                ",
"                                      =X@Xh.                                      d.c.c.l.P c                                   ",
"                                    %Xf.I D Y.                                  A z.c.j.z.8                                     ",
"                                  *Xg.P J Z R.l B.=X                          8 x.c.} x.c.5                                     ",
"                                  f.P K D 6 Z c.l.` @X          #X~ OX      B.H Y x.K j.} L                                     ",
"                                $X` U H 6 { x.c.n.z.`           a U x       V.9 K Y K Y { U                                     ",
"                              &Xr { L K $ o . A l.} Y         | j.{ x         u U K F Y { U                                     ",
"                              N.F T W Y A * . O 6 { {       U c.Y l.x           } U H Y { Y                                     ",
"                              l | E W m.E !.V t.$ j.K o d.J { j.H F x           Z } { K P Y 7                                   ",
"                              k M.! o.1.~.s./.d J { q . $ j.{ E Y J     ;X        J Y Y H D H H                                 ",
"                              V.  %.N t.i.4.H R K ] &.s c._ 2 M K z               e ( + Y H { { {                               ",
"                              &X  r.@.].1.L Q _ 4.'.e.I.] ! O.[ P a                 J.^ Y F { { J 4                             ",
"                                  !.P. XE._ 4.].p.}.9./.*.m &.M.K c                   N.A K { { 8                               ",
"                                9.!.{. X XW. X X[./.,.y...y.W.v.( &X                  G J Y { P k                               ",
"                                L...,.E. X X X X X{././.{.>.C N.        -X            v.K J 6 8 J.                              ",
"                                &Xt g .X X X X^.i 2.XX}.f C.                      F.M.l.} 0 J.#X                                ",
"                                  y f P. X X^., <., _.E.3 ;.                    ,.t.4.v.m.F x                                   ",
"                                    f ]._. X/.X.N t.r.= X w I H           &XV ..N e.r.5.u K.                                    ",
"                                    v B +./.].{._.7.#.6.3.[ W > D..X2.2.S.S.N m n : v B.=X                                      ",
"                                    &XOXi t h :.7.$.8.0.p.`.(.~.^.[. X X[.E.n ;                                                 ",
"                                              G.8.8.q.). X X X X X X X X X XX.                                                  ",
"                                              G j  X). X X X X X X X X{.].s.8.                                                  ",
"                                      %XG f.Z P j.h. X X X X X X(.w.2.w.8.0.u.:                                                 ",
"                                        J.w Z K D W [. X(.@.6.$.$.#...#.6.8.a.8.                                                ",
"                                          J.C.4 % 2. X XV < <.L.m O.O.O.6.q.q.q.g                                               ",
"                                              #XA.(. XE.C         O.8.$.m O.$.6.6.                                              ",
"                                                 .|. Xf B         d 8.-.<.D.3 q.1.%   T.                                        ",
"                                              U I Q.U.& :         g #.V     = 8.Q F ' #X                                        ",
"                                              ) *.3.S Q t         i , t     = 8.C T.                                            ",
"                                              B X.B h - B.        @ u       , X.b                                               ",
"                                              p f B.              V.+X    y B : N.                                              "
};
